 <svg  version="1.0" xmlns="http://www.w3.org/2000/svg"  width="300.000000pt" height="299.000000pt" viewBox="0 0 300.000000 299.000000"  preserveAspectRatio="xMidYMid meet">  <g transform="translate(0.000000,299.000000) scale(0.100000,-0.100000)" fill="#545454" stroke="none"> <path d="M1385 2979 c-354 -24 -683 -176 -940 -434 -210 -210 -340 -449 -407 -746 -20 -90 -23 -131 -23 -304 0 -173 3 -214 23 -304 133 -595 575 -1030 1172 -1158 122 -26 459 -26 580 1 452 98 824 378 1029 776 69 132 110 250 142 400 30 141 32 407 5 550 -146 759 -811 1272 -1581 1219z m431 -162 c174 -44 294 -98 442 -197 190 -127 357 -318 457 -523 62 -129 87 -202 117 -342 30 -142 30 -379 0 -522 -26 -121 -71 -251 -120 -348 -29 -58 -36 -67 -42 -50 -5 11 -20 55 -35 97 -50 143 -156 265 -298 343 l-68 37 -72 -23 c-100 -33 -235 -33 -329 -1 l-67 23 -56 -26 c-119 -57 -230 -168 -290 -290 -46 -92 -64 -170 -68 -282 l-2 -93 575 -2 575 -3 -55 -59 c-192 -204 -474 -352 -769 -401 -125 -21 -373 -16 -491 10 -186 41 -389 132 -530 239 -104 78 -238 216 -309 316 l-52 75 482 5 482 5 18 78 c23 96 93 234 154 304 l46 53 -43 56 c-51 65 -140 136 -221 174 l-58 28 -50 -19 c-111 -43 -250 -42 -360 1 l-46 18 -58 -29 c-214 -108 -355 -329 -355 -556 0 -40 -4 -73 -9 -73 -23 0 -117 248 -148 390 -25 120 -25 411 0 530 57 266 173 484 359 676 161 165 338 278 548 348 166 55 248 66 460 62 158 -3 200 -8 286 -29z"/> <path d="M888 2370 c-194 -34 -338 -207 -338 -405 0 -207 131 -369 331 -411 211 -44 417 80 480 288 63 208 -51 437 -253 508 -66 23 -158 31 -220 20z"/> <path d="M1919 2176 c-108 -29 -212 -118 -263 -226 -29 -60 -31 -73 -31 -175 0 -103 2 -114 32 -178 40 -85 112 -156 201 -199 63 -31 74 -33 172 -33 97 0 110 2 172 32 345 163 320 651 -40 772 -70 24 -171 27 -243 7z"/> </g> </svg> 