 <svg  version="1.0" xmlns="http://www.w3.org/2000/svg"  width="300.000000pt" height="300.000000pt" viewBox="0 0 300.000000 300.000000"  preserveAspectRatio="xMidYMid meet">  <g transform="translate(0.000000,300.000000) scale(0.100000,-0.100000)" fill="#545454" stroke="none"> <path d="M1346 2970 c-500 -57 -936 -360 -1158 -805 -108 -214 -158 -429 -158 -672 0 -464 215 -891 590 -1175 172 -130 376 -221 604 -270 133 -28 405 -31 541 -4 310 59 563 193 785 416 357 356 504 847 404 1340 -117 573 -585 1036 -1163 1151 -113 22 -333 32 -445 19z m354 -155 c212 -32 438 -125 601 -249 151 -114 314 -307 393 -465 43 -85 95 -236 117 -341 31 -148 31 -372 0 -520 -28 -132 -88 -291 -148 -395 -52 -89 -144 -214 -193 -260 -37 -35 -30 -40 -99 85 -77 141 -241 294 -396 373 -300 150 -695 119 -971 -79 -154 -109 -292 -291 -348 -456 -3 -10 -10 -18 -15 -18 -18 0 -183 185 -236 265 -173 262 -254 569 -225 853 46 447 273 809 648 1035 257 155 575 218 872 172z"/> <path d="M1359 2211 c-324 -104 -452 -489 -255 -766 154 -214 452 -270 672 -126 358 234 277 773 -135 895 -74 22 -210 20 -282 -3z"/> </g> </svg> 